<?xml version="1.0" standalone="no"?>
<!DOCTYPE svg PUBLIC "-//W3C//DTD SVG 20010904//EN"
 "http://www.w3.org/TR/2001/REC-SVG-20010904/DTD/svg10.dtd">
<svg version="1.0" xmlns="http://www.w3.org/2000/svg"
 width="350.000000pt" height="300.000000pt" viewBox="0 0 350.000000 300.000000"
 preserveAspectRatio="xMidYMid meet">

<g transform="translate(0.000000,300.000000) scale(0.100000,-0.100000)"
fill="#000000" stroke="none">
<path d="M1600 2919 c-592 -66 -1110 -481 -1265 -1014 -278 -959 570 -1870
1633 -1754 999 108 1609 1087 1206 1938 -269 569 -905 905 -1574 830z m175
-839 c59 -13 95 -58 95 -116 0 -99 -65 -161 -180 -171 -57 -5 -60 -7 -60 -32
0 -14 -3 -36 -6 -47 -5 -19 -1 -23 35 -29 25 -4 41 -12 41 -21 0 -12 -34 -14
-200 -14 -167 0 -200 2 -200 14 0 8 9 18 21 21 16 5 20 14 17 43 l-3 37 -67 3
c-66 3 -67 2 -83 -27 -21 -41 -19 -50 10 -57 51 -13 19 -29 -63 -32 -68 -2
-82 0 -82 12 0 9 11 18 23 22 19 4 41 42 115 197 l91 192 50 3 c59 4 50 24 91
-208 18 -96 32 -176 33 -176 10 -8 45 -12 54 -6 10 6 53 273 53 329 0 12 -8
23 -20 26 -13 3 -18 11 -14 21 4 11 24 16 77 19 40 1 86 4 102 5 17 1 48 -3
70 -8z m-655 -16 c0 -9 -9 -18 -19 -21 -23 -6 -25 -13 -46 -193 -9 -74 -21
-151 -26 -171 -12 -47 -74 -104 -129 -119 -64 -17 -84 7 -29 35 49 26 52 37
104 406 4 31 2 38 -15 42 -11 3 -20 12 -20 21 0 13 14 16 90 16 76 0 90 -3 90
-16z m1024 -1 c3 -10 19 -97 36 -193 18 -96 33 -176 33 -177 8 -7 55 -12 64
-5 9 5 63 305 63 347 0 3 -8 5 -18 5 -24 0 -32 8 -25 26 4 10 25 14 83 14 l78
0 57 -152 c31 -84 60 -158 64 -166 4 -7 13 36 20 95 6 59 15 124 18 145 5 33
3 37 -18 40 -13 1 -24 10 -24 18 0 12 16 16 73 18 61 2 72 0 72 -13 0 -10 -9
-19 -20 -22 -11 -3 -20 -10 -20 -15 0 -14 -49 -327 -55 -356 -5 -21 -10 -23
-57 -20 l-51 3 -61 157 c-34 87 -64 160 -67 163 -3 3 -11 -52 -18 -123 -7 -70
-14 -134 -17 -144 -3 -12 3 -18 25 -23 20 -4 28 -11 24 -21 -8 -21 -343 -21
-343 0 0 8 9 18 21 21 16 5 20 14 17 43 l-3 37 -67 3 c-66 3 -67 2 -83 -27
-21 -41 -19 -50 10 -57 51 -13 19 -29 -63 -32 -68 -2 -82 0 -82 12 0 9 11 18
24 22 18 4 33 26 64 92 22 48 64 135 92 195 l52 107 48 0 c38 0 50 -4 54 -17z
m-826 -700 c-2 -10 -13 -19 -26 -21 -28 -4 -27 -10 7 -100 l27 -73 51 86 c51
83 51 85 27 85 -17 0 -24 5 -24 20 0 19 7 20 165 20 141 0 165 -2 165 -15 0
-9 -12 -18 -28 -21 l-28 -6 -17 -138 c-22 -178 -13 -210 61 -210 48 0 68 14
86 62 15 39 46 222 46 267 0 10 -9 21 -20 24 -11 3 -20 12 -20 21 0 13 13 16
70 16 54 0 70 -3 70 -14 0 -8 -9 -17 -20 -21 -21 -7 -21 -5 -45 -178 -8 -60
-22 -121 -30 -137 -47 -91 -192 -117 -270 -49 -44 39 -49 77 -30 209 21 148
21 150 -14 150 -26 0 -37 -12 -100 -108 -50 -78 -72 -122 -76 -153 -4 -24 -8
-54 -11 -65 -3 -18 2 -23 31 -28 21 -4 35 -13 35 -21 0 -12 -22 -15 -120 -15
-98 0 -120 3 -120 15 0 8 14 17 35 21 36 6 35 3 50 104 5 35 -84 242 -107 248
-10 2 -18 13 -18 23 0 17 9 19 101 19 90 0 100 -2 97 -17z m845 5 c2 -7 10
-68 18 -135 7 -68 15 -121 17 -119 2 3 27 62 56 133 l52 128 88 3 c80 3 87 1
84 -15 -2 -10 -13 -19 -24 -21 -18 -3 -22 -12 -28 -70 -3 -37 -6 -115 -6 -174
0 -106 0 -108 25 -114 14 -3 25 -12 25 -20 0 -11 -22 -14 -105 -14 -84 0 -105
3 -105 14 0 8 13 17 29 21 l29 6 6 107 c4 59 9 134 12 167 4 33 4 58 2 55 -3
-3 -40 -87 -82 -187 -61 -141 -83 -182 -99 -187 -12 -3 -25 -2 -28 2 -3 4 -16
86 -29 182 -12 96 -24 177 -26 179 -5 6 -9 -9 -44 -154 -17 -71 -33 -137 -36
-147 -3 -12 3 -18 26 -23 16 -4 30 -13 30 -21 0 -11 -19 -14 -90 -14 -76 0
-88 2 -84 15 4 8 16 18 28 21 19 4 28 28 67 177 l45 172 -28 3 c-20 2 -28 9
-28 23 0 17 8 19 99 19 70 0 100 -4 104 -12z"/>
<path d="M1666 2018 c-12 -56 -27 -180 -22 -185 10 -10 73 7 88 25 37 42 46
133 17 169 -6 7 -27 13 -45 13 -27 0 -35 -5 -38 -22z"/>
<path d="M1260 1913 c-18 -43 -35 -84 -37 -90 -4 -10 10 -13 52 -13 49 0 56 2
51 18 -3 9 -8 44 -12 77 -10 94 -17 95 -54 8z"/>
<path d="M2020 1913 c-18 -43 -35 -84 -37 -90 -4 -10 10 -13 52 -13 49 0 56 2
51 18 -3 9 -8 44 -12 77 -10 94 -17 95 -54 8z"/>
</g>
</svg>
